<svg width="270" height="44" viewBox="0 0 270 44" fill="none" xmlns="http://www.w3.org/2000/svg">
<path d="M0.5 0.5H269.5V43.5H0.5V0.5Z" fill="#FAFAFA" stroke="#E1E1E1"/>
<path d="M31.344 27.568H32.672V16.848H31.344V20.208H28.208V21.296H31.344V27.568ZM29.232 24.176C27.168 23.408 25.76 21.52 25.76 19.52V17.696H24.448V19.472C24.448 21.664 23.008 23.696 20.864 24.48L21.552 25.52C23.232 24.848 24.512 23.488 25.12 21.776C25.728 23.328 26.96 24.56 28.544 25.184L29.232 24.176ZM24.752 29.792V26.384H23.44V30.864H33.008V29.792H24.752ZM42.2868 23.328C40.7828 23.632 39.5028 23.712 37.4548 23.712V21.76H41.5668V20.752H37.4548V18.944H41.7268V17.888H36.1908V24.784H37.1028C39.4068 24.784 40.7668 24.72 42.4148 24.384L42.2868 23.328ZM38.0308 27.344H46.3668V31.184H47.6788V26.288H38.0308V27.344ZM46.4148 16.848V20.576H44.4948V17.104H43.2468V25.44H44.4948V21.648H46.4148V25.536H47.6788V16.848H46.4148Z" fill="#999999"/>
<path fill-rule="evenodd" clip-rule="evenodd" d="M244 22.854L239.469 18L238 19.573L244 26L250 19.573L248.531 18L244 22.854Z" fill="#666666"/>
</svg>
